<svg id="Layer_1" xmlns="http://www.w3.org/2000/svg" viewBox="0 0 266.4 93.6"><style>.st0{fill:#636466}.st1{fill:#ff8300}.st2{fill:#6d6e71}</style><path class="st0" d="M10.9 84.3h11l-2.2 7h-10c-2.7 0-4.8-.1-6.7-1-2-1-2.6-2.5-1.9-4.6 1.3-4.2 5.3-6.1 12.4-6.1h10l-.6 2h-10c-3.7 0-5.7 1.3-6.5 3.9-.8 2.5.3 3.7 4.1 3.7h5.3l.9-2.8h-6.2l.4-2.1zm64.4-4.7c5.3 0 7.4 1.1 6.6 3.5-.6 1.8-2.5 3-5.5 3.3l4 4.9h-5.3l-3.4-4.6h-5.5l-1.5 4.6H60l3.7-11.8h11.6zm-7.5 2.1l-.9 3h5.7c2.8 0 4.2-.3 4.6-1.5.4-1.2-.9-1.5-3.7-1.5h-5.7zm65.4-2.4c7.5 0 10.4 1.9 9.1 6.1-1.3 4.2-5.5 6.1-13 6.1-7.6 0-10.4-2-9.1-6.2 1.3-4 5.5-6 13-6zm-7.9 6c-.9 2.9.5 4.2 4.6 4.2s6.4-1.3 7.3-4.1c.9-2.8-.6-4.1-4.7-4.1-4 .1-6.3 1.4-7.2 4zm60.9 1.3c-.7 2.1.2 2.9 4.1 2.9 3.9 0 5.3-.9 5.9-2.9l2.2-7h4.7l-2.2 7.1c-.5 1.5-1.1 2.5-2.3 3.2-2.2 1.1-5 1.6-8.9 1.6-3.9 0-6.4-.5-7.9-1.6-.8-.6-.7-1.7-.3-3.2l2.2-7.1h4.6l-2.1 7zm65.5-7c3 0 5.1.1 6.3.6 1.8.7 2.5 1.8 2 3.2-.4 1.4-1.6 2.4-3.5 3.1-2.1.7-4.3.8-7.1.8h-5.7l-1.3 4.1h-4.7l3.7-11.8h10.3zm-6.1 2.1l-1.1 3.5h5.7c2.8 0 4.3-.6 4.7-1.7.4-1.3-.8-1.7-3.9-1.7h-5.4zM48.1 28h47.7L84 65.8H40.6c-11.6 0-20.7-.4-28.7-5.6C3.6 55 1.4 46.6 5 35.1 12 12.5 29.7 2 60.4 2h43.4l-3.4 11H57c-16.2 0-24.8 6.8-29.3 21.4-4.2 13.6.3 19.8 16.6 19.8H67l4.7-15h-27L48.1 28z"/><path class="st1" d="M207.2 59.2c-5.7-5.2-5.4-10.8-2.7-19.2l10.7-38h20.2l-10.8 35c-.3.9-.5 1.7-.8 2.5-1.6 5.2-2.7 9.1-.2 11.6 3.2 3.4 8.7 4.2 17.3 4.2h24.8l-3.3 10.6h-26.5c-14-.1-22-.7-28.7-6.7z"/><path class="st2" d="M148 13.4c-10.6 0-16.3 2.5-18.1 8.4-1.4 4.6 2.1 6.9 10.5 6.9h26.7c21.4 0 29.1 4.7 25 18-4.2 13.4-16.7 19.1-39.4 19.1H99.1l3.5-11.4h50.5c10.7 0 16.2-1.7 17.9-7.2 1.8-5.7-2.3-7.4-12-7.4h-23.8c-21.9 0-30.2-5.5-26.3-18.3C113.2 7.7 125.8 2 148.6 2h52.8l-3.5 11.4H148z"/></svg>